<svg xmlns="http://www.w3.org/2000/svg" version="1.1" xmlns:xlink="http://www.w3.org/1999/xlink" xmlns:svgjs="http://svgjs.dev/svgjs" width="100%" height="100%" viewBox="0 0 1000 600"><rect width="1000" height="600" x="0" y="0" fill="grey"/><g><circle r="166.66666666666666" cx="318.97135416666663" cy="341.1935304917075" fill="black" transform="matrix(0.8207235959985212,0,0,0.8207235959985211,0,19.974436859955517)"/><path d="M256.07089421476144 398.78506278679305L256.07089421476144 398.78506278679305Q287.57866260812557 398.78506278679305 287.57866260812557 377.23317372137774L287.57866260812557 377.23317372137774Q287.57866260812557 370.61510364788575 284.78756349017465 365.9536803787305Q281.96769015451287 361.29225710957525 277.2199442322251 357.8681252019859Q272.4434240922265 354.44399329439653 266.3432899375295 351.96941057126475Q260.2143815651217 349.49482784813296 253.39489196765385 346.9914709072903L253.39489196765385 346.9914709072903Q245.5107563148851 344.3154686601827 238.46107297573056 340.89133675259336Q231.44016385428685 337.467204845004 226.26080466633658 332.80578157584875Q221.0814454783863 328.1443583066935 218.06015261874865 321.72770775717737Q215.06763397682184 315.3110572076612 215.06763397682184 306.18963019332654L215.06763397682184 306.18963019332654Q215.06763397682184 287.3425175927297 227.9009350758542 276.75360547514254Q240.76301039259735 266.19346757526614 263.32199707789187 266.19346757526614L263.32199707789187 266.19346757526614Q276.38549191861085 266.19346757526614 287.0607266893306 268.9845666932171Q297.7359614600503 271.8044400288789 302.6851269063139 275.1134750656249L302.6851269063139 275.1134750656249L296.2684763567977 291.48600494308994Q291.92356948246163 288.7812284782715 283.3200783869221 286.19154888429637Q274.71658729138244 283.6018692903212 263.32199707789187 283.6018692903212L263.32199707789187 283.6018692903212Q257.53837931801405 283.6018692903212 252.5604396540396 284.8391606518871Q247.5824999900652 286.076452013453 243.8706259053675 288.57980895429563Q240.12997760295897 291.0543916774274 237.94313705693554 294.8813626329685Q235.7850707286229 298.7371078062203 235.7850707286229 303.9164669941706L235.7850707286229 303.9164669941706Q235.7850707286229 309.7000847540484 238.05823392777887 313.64215258043276Q240.3313971269348 317.5842204068171 244.47488447729503 320.57673904874395Q248.61837182765527 323.59803190838164 254.1142474104247 326.07261463151343Q259.6101229931942 328.5471973546452 266.2281930666862 331.0505542954878L266.2281930666862 331.0505542954878Q275.5510396049967 334.76242838018555 283.3200783869221 338.50307668259404Q291.08911716884745 342.2437249850026 296.78641227559274 347.4230841729529Q302.483707382338 352.6024433609031 305.5913228951082 359.73844935319016Q308.69893840787836 366.8744553454772 308.69893840787836 377.0317541974019L308.69893840787836 377.0317541974019Q308.69893840787836 395.8788667979987 294.91608812438847 406.03616564992336Q281.16201205860943 416.1934645018481 256.07089421476144 416.1934645018481L256.07089421476144 416.1934645018481Q247.5824999900652 416.1934645018481 240.44649399777816 415.04249579341473Q233.2817137877803 413.92030130269217 227.69951555187833 412.366493546307Q222.11731731597638 410.812685789922 218.06015261874865 409.05745850956106Q214.03176213923177 407.27345701148926 211.75859894007584 406.03616564992336L211.75859894007584 406.03616564992336L217.74363622392946 389.46221624848255Q222.52015636392807 392.166992713301 232.24584195019023 395.476027750047Q242.00030175416325 398.78506278679305 256.07089421476144 398.78506278679305ZM424.1123256460369 269.5025026120121L424.1123256460369 285.47219344152546Q419.33580550603835 290.85297215345156 413.0054776096546 298.4205914114011Q406.7039239309818 305.9882106693507 399.65424059182726 315.19596033681785Q392.60455725267275 324.40371000428496 385.1520348655665 334.676105727053Q377.6995124784603 344.91972723211023 370.53473226846245 355.3935424788541Q363.39872627617535 365.8385835078871 356.9820757266592 376.1973018837877Q350.5654251771431 386.55602025968824 345.3860659891928 395.8788667979987L345.3860659891928 395.8788667979987L426.18406932121707 395.8788667979987L426.18406932121707 413.08584898907793L321.9638527725732 413.08584898907793L321.9638527725732 399.6195151004072Q326.30875964690927 391.3325403996868 332.20747427763047 381.37666107173794Q338.1349631260624 371.4495559614999 344.8681300703978 361.0908375855994Q351.6012970147331 350.73211920969885 358.8523998778635 340.17198130982246Q366.10350274099386 329.58306919223526 373.2395087332809 319.8573836059731Q380.37551472556794 310.1316980197109 387.10868166990326 301.6145295773038Q393.84184861423864 293.12613535260755 399.45282106785146 286.70948480309136L399.45282106785146 286.70948480309136L325.70450107498175 286.70948480309136L325.70450107498175 269.5025026120121L424.1123256460369 269.5025026120121Z " fill="white" transform="matrix(0.8207235959985212,0,0,0.8207235959985211,0,19.974436859955517)"/><path d="M588.3628575200789 396.41354342025005L652.2799978137986 396.41354342025005L652.2799978137986 413.19734111022416L568.971329279927 413.19734111022416L568.971329279927 274.76568743589206L588.3628575200789 274.76568743589206L588.3628575200789 396.41354342025005ZM690.0088653482859 309.33198813292967L690.0088653482859 413.19734111022416L671.4495915390418 413.19734111022416L671.4495915390418 309.33198813292967L690.0088653482859 309.33198813292967ZM680.6321320933912 290.55077980877684L680.6321320933912 290.55077980877684Q675.6386055079444 290.55077980877684 672.1431368981316 287.24950389950914Q668.6476682883188 283.97596980460514 668.6476682883188 278.37212330315924L668.6476682883188 278.37212330315924Q668.6476682883188 272.76827680171334 672.1431368981316 269.49474270680923Q675.6386055079444 266.19346679754165 680.6321320933912 266.19346679754165L680.6321320933912 266.19346679754165Q685.6256586788381 266.19346679754165 689.1211272886509 269.49474270680923Q692.6165958984636 272.76827680171334 692.6165958984636 278.37212330315924L692.6165958984636 278.37212330315924Q692.6165958984636 283.97596980460514 689.1211272886509 287.24950389950914Q685.6256586788381 290.55077980877684 680.6321320933912 290.55077980877684ZM767.1311092790761 415.5831371454932L767.1311092790761 415.5831371454932Q754.5363255580046 415.5831371454932 745.0486250456556 411.5883158771357Q735.5609245333065 407.59349460877826 729.0693399722256 400.4083646886075Q722.5777554111448 393.2232347684367 719.3874467593315 383.34714885499744Q716.1971381075182 373.4433211271945 716.1971381075182 361.45885732212207L716.1971381075182 361.45885732212207Q716.1971381075182 349.47439351704963 719.692606717331 339.4873403461559Q723.1880753271438 329.5002871752622 729.5686926307703 322.2041899976371Q735.9493099343969 314.93583463437557 745.2428177462008 310.83004610856375Q754.5363255580046 306.7242575827519 765.910469447078 306.7242575827519L765.910469447078 306.7242575827519Q772.9014066667036 306.7242575827519 779.8923438863292 307.94489741475Q786.8832811059548 309.1377954323845 793.2916402239448 311.71778416819876L793.2916402239448 311.71778416819876L789.1026262550422 327.5028765410835Q784.885870471776 325.50546590690476 779.3929912277845 324.3125678892702Q773.900111983793 323.1196698716357 767.7136873807116 323.1196698716357L767.7136873807116 323.1196698716357Q752.1505295227355 323.1196698716357 743.8557270280211 332.9125303419842Q735.5609245333065 342.6776489979692 735.5609245333065 361.45885732212207L735.5609245333065 361.45885732212207Q735.5609245333065 369.8646270742909 737.447367910031 376.85556429391653Q739.361553101119 383.84650151354214 743.4395998125672 388.84002809898897Q747.545388338379 393.8335546844358 753.9260056420055 396.5245106777044Q760.3343647599957 399.21546667097294 769.5169053143452 399.21546667097294L769.5169053143452 399.21546667097294Q776.896227935061 399.21546667097294 782.8884598375973 397.8283759527933Q788.8806917401334 396.41354342025005 792.2929349068555 394.8322600015252L792.2929349068555 394.8322600015252L794.8729236426698 410.3954178595012Q793.2916402239448 411.39412317659054 790.2955242726767 412.30960305058915Q787.2994083214087 413.19734111022416 783.4987797535963 413.890886469314Q779.698151185784 414.58443182840386 775.3981699594269 415.08378448694856Q771.1259305474335 415.5831371454932 767.1311092790761 415.5831371454932ZM838.815957594602 402.40577532278627L838.815957594602 402.40577532278627Q838.815957594602 407.815429123687 835.2372635416984 411.81025039204445Q831.6308276744312 415.80507166040195 825.4444030713498 415.80507166040195L825.4444030713498 415.80507166040195Q819.2579784682684 415.80507166040195 815.6515426010013 411.81025039204445Q812.0728485480977 407.815429123687 812.0728485480977 402.40577532278627L812.0728485480977 402.40577532278627Q812.0728485480977 397.0238633362491 815.6515426010013 393.0290420678916Q819.2579784682684 389.0342207995341 825.4444030713498 389.0342207995341L825.4444030713498 389.0342207995341Q831.6308276744312 389.0342207995341 835.2372635416984 393.0290420678916Q838.815957594602 397.0238633362491 838.815957594602 402.40577532278627ZM902.1505197866862 399.4096593715181L902.1505197866862 399.4096593715181Q932.5000647004576 399.4096593715181 932.5000647004576 378.6310404131865L932.5000647004576 378.6310404131865Q932.5000647004576 372.25042310956 929.809108707189 367.7562491826578Q927.1181527139204 363.26207525575563 922.513011529564 359.96079934648805Q917.935612159571 356.6595234372204 912.0266057001255 354.27372740195136Q906.1453410550437 351.88793136668227 899.5427892365084 349.47439351704963L899.5427892365084 349.47439351704963Q891.9692739152474 346.89440478123544 885.172529396167 343.5931288719678Q878.3757848770865 340.29185296270015 873.3822582916396 335.797679035798Q868.3887317061929 331.3035051088958 865.5035830123791 325.11708050581444Q862.5906925042018 318.93065590273306 862.5906925042018 310.1365007494739L862.5906925042018 310.1365007494739Q862.5906925042018 291.9656123413201 874.991283524728 281.7566246555176Q887.3641327308908 271.5753787840788 909.1414570063118 271.5753787840788L909.1414570063118 271.5753787840788Q921.7084989130196 271.5753787840788 932.000712041913 274.26633477734737Q942.2929251708061 276.98503258497954 947.0922590557079 280.1753412367928L947.0922590557079 280.1753412367928L940.9058344526264 295.9604336096776Q936.6890786693602 293.35270305949973 928.4220179890094 290.8559397667763Q920.1272154942949 288.3591764740529 909.1414570063118 288.3591764740529L909.1414570063118 288.3591764740529Q903.5376105048659 288.3591764740529 898.7382766199642 289.55207449168745Q893.9666845494261 290.744972509322 890.360248682159 293.1585103589546Q886.7538128148917 295.54430639422367 884.6731767376223 299.23396770458163Q882.5647988459891 302.95137082930313 882.5647988459891 307.94489741475L882.5647988459891 307.94489741475Q882.5647988459891 313.5210021018323 884.7564021807129 317.32163066964466Q886.9757473298005 321.12225923745694 890.970568598158 324.0074079312707Q894.9653898665155 326.920298439448 900.2363345955982 329.3060944747171Q905.5350211390446 331.69189050998614 911.9433802570347 334.10542835961877L911.9433802570347 334.10542835961877Q920.9317281108391 337.68412241252236 928.4220179890094 341.29055827978954Q935.9123078671797 344.89699414705666 941.4051871111712 349.89052073250355Q946.8980663551627 354.8840473179504 949.8941823064308 361.7640172801216Q952.890298257699 368.64398724229284 952.890298257699 378.4368477126414L952.890298257699 378.4368477126414Q952.890298257699 396.60773612079515 939.6019691775375 406.4005965911437Q926.3136400973763 416.19345706149227 902.1505197866862 416.19345706149227L902.1505197866862 416.19345706149227Q893.9666845494261 416.19345706149227 887.0589727728913 415.08378448694856Q880.17900281072 414.0018537267684 874.7693490098193 412.5037957511343Q869.3874370232821 411.0057377755002 865.5035830123791 409.31348709932104Q861.5919871871124 407.59349460877826 859.4003838523885 406.4005965911437L859.4003838523885 406.4005965911437L865.1984230543795 390.42131151771383Q869.7758224243724 393.0290420678916 879.1802974936306 396.2193507197049Q888.5570307485253 399.4096593715181 902.1505197866862 399.4096593715181ZM1064.1349738557092 274.76568743589206L1064.1349738557092 290.1623944076865Q1059.5298326713528 295.3501136936785 1053.4543753257258 302.6462108713036Q1047.351176165735 309.94230804892874 1040.5544316466548 318.8196886452787Q1033.7854289419379 327.69706924162864 1026.5725572074034 337.6008969694316Q1019.3874272872329 347.4769828828709 1012.5074573250615 357.57500331121895Q1005.5997455485268 367.64528192520345 999.4133209454454 377.63233509609717Q993.226896342364 387.6193882669908 988.2333697569172 396.60773612079515L988.2333697569172 396.60773612079515L1066.132384489888 396.60773612079515L1066.132384489888 413.19734111022416L965.6515328649521 413.19734111022416L965.6515328649521 400.21417198806233Q969.8682886482181 392.2245294513474 975.5553605927548 382.625861681544Q981.2424325372916 373.0549357261042 987.7340170983724 363.0678825552105Q994.2256016594533 353.0808293843168 1001.216538879079 342.89958351287794Q1008.2074760987045 332.69059582707547 1015.0874460608758 323.3138625721809Q1021.9951578374106 313.93712931728624 1028.4867423984915 305.7255522656625Q1034.9783269595723 297.5417170284024 1040.3602389461096 291.355292425321L1040.3602389461096 291.355292425321L969.2579687322191 291.355292425321L969.2579687322191 274.76568743589206L1064.1349738557092 274.76568743589206Z " fill="white" transform="matrix(0.8207235959985212,0,0,0.8207235959985211,0,19.974436859955517)"/></g></svg>